# xmcd
#
# Track frame offsets: 
#        183
#        12018
#        23908
#        35045
#        47545
#        59585
#        71578
#        82013
#        95325
#        107838
#        119965
#        134060
#        144983
#        157428
#        170698
#        182723
#        194938
#        203540
#
# Disc length: 2882 seconds
#
# Revision: 3
# Processed by: cddbd v1.5.2PL0 Copyright (c) Steve Scherf et al.
# Submitted via: ExactAudioCopyFreeDBPlugin 1.0
#
DISCID=180b4012
DTITLE=Platters - Only You
DYEAR=1900
DGENRE=Blues
TTITLE0=Only You
TTITLE1=The Great Pretender
TTITLE2=The Magic Touch
TTITLE3=My Prayer
TTITLE4=Heaven on Earth
TTITLE5=You'll Never Never Know
TTITLE6=One in a Million
TTITLE7=I'm Sorry
TTITLE8=Twilight Time
TTITLE9=Smoke Gets in your Eyes
TTITLE10=Harbour Lights
TTITLE11=Red Sails in the Sunset
TTITLE12=I Love You 1000 Times
TTITLE13=I'll Be Home
TTITLE14=With this Ring
TTITLE15=Washed Ashore
TTITLE16=Sweet Sweet Lovin'
TTITLE17=Pledging my Love
EXTD=ID3G: 17
EXTT0=
EXTT1=
EXTT2=
EXTT3=
EXTT4=
EXTT5=
EXTT6=
EXTT7=
EXTT8=
EXTT9=
EXTT10=
EXTT11=
EXTT12=
EXTT13=
EXTT14=
EXTT15=
EXTT16=
EXTT17=
PLAYORDER=
